<?xml version="1.0" standalone="no"?>
<!DOCTYPE svg PUBLIC "-//W3C//DTD SVG 20010904//EN"
 "http://www.w3.org/TR/2001/REC-SVG-20010904/DTD/svg10.dtd">
<svg version="1.0" xmlns="http://www.w3.org/2000/svg"
 width="3616.000000pt" height="3616.000000pt" viewBox="0 0 3616.000000 3616.000000"
 preserveAspectRatio="xMidYMid meet">
<metadata>
Created by potrace 1.14, written by Peter Selinger 2001-2017
</metadata>
<g transform="translate(0.000000,3616.000000) scale(0.100000,-0.100000)"
fill="#000000" stroke="none">
<path d="M16747 21594 c-1 -1 -63 -4 -137 -8 -74 -3 -151 -8 -170 -11 -19 -2
-60 -6 -90 -10 -82 -8 -131 -14 -165 -20 -16 -2 -48 -7 -70 -10 -44 -7 -67
-11 -105 -20 -14 -3 -36 -7 -50 -10 -110 -21 -315 -73 -387 -99 -22 -8 -44
-12 -47 -9 -3 4 -6 0 -6 -7 0 -7 -3 -11 -6 -7 -3 3 -29 -4 -58 -15 -28 -11
-58 -21 -66 -22 -9 -1 -20 -5 -26 -8 -5 -4 -40 -18 -77 -32 -90 -34 -388 -174
-437 -206 -15 -9 -106 -62 -145 -84 -40 -23 -140 -91 -143 -98 -2 -5 -8 -8
-13 -8 -9 0 -174 -122 -229 -169 -14 -12 -45 -38 -70 -59 -41 -34 -291 -283
-315 -314 -26 -33 -141 -174 -145 -178 -3 -3 -9 -12 -15 -21 -15 -23 -154
-232 -163 -244 -7 -11 -45 -81 -91 -170 -14 -27 -30 -53 -34 -56 -5 -3 -8 -9
-8 -13 1 -3 -10 -32 -25 -64 -14 -31 -32 -72 -40 -89 -8 -18 -21 -48 -29 -67
-8 -19 -15 -37 -15 -41 0 -4 -6 -21 -14 -38 -16 -39 -48 -125 -46 -129 0 -2
-9 -30 -20 -63 -22 -65 -78 -283 -84 -331 -3 -16 -9 -49 -14 -74 -6 -25 -13
-65 -17 -90 -3 -25 -8 -61 -11 -80 -5 -39 -10 -81 -20 -185 -16 -157 -8 -696
11 -835 2 -14 6 -50 10 -80 4 -30 9 -66 11 -80 3 -14 8 -41 10 -60 8 -51 12
-75 15 -77 1 -2 2 -11 3 -20 3 -26 26 -126 48 -213 11 -41 21 -79 22 -85 2 -5
9 -30 16 -55 8 -25 14 -48 16 -52 1 -5 3 -10 4 -13 1 -3 3 -8 5 -12 1 -5 4
-15 8 -23 3 -8 15 -44 28 -80 68 -203 216 -493 369 -725 29 -44 56 -82 60 -85
3 -3 20 -25 37 -50 17 -25 40 -54 50 -65 11 -11 24 -28 29 -37 29 -51 318
-351 418 -433 27 -22 54 -45 60 -50 6 -6 31 -26 56 -45 25 -19 47 -37 50 -40
3 -3 13 -9 22 -15 9 -5 51 -34 92 -62 42 -29 80 -53 85 -53 5 0 11 -4 13 -8 7
-20 378 -222 406 -222 7 0 12 -4 12 -10 0 -5 7 -10 15 -10 8 0 38 -11 67 -25
133 -61 465 -169 616 -200 156 -31 259 -50 337 -61 22 -3 56 -7 75 -10 148
-22 278 -28 595 -28 171 1 337 4 370 7 33 3 86 9 117 12 31 3 67 8 79 10 13 3
41 7 64 10 22 3 51 8 65 10 14 3 45 7 69 10 24 3 48 8 52 11 9 5 27 9 84 20
17 3 55 12 85 20 30 8 66 17 79 20 43 9 295 96 349 120 29 13 56 24 60 24 6 0
117 56 252 126 30 16 57 32 58 36 2 5 8 8 13 8 7 0 182 108 214 132 6 4 53 40
105 80 52 40 108 84 124 98 52 44 218 204 250 240 17 19 40 44 51 55 16 18 72
85 108 130 4 6 17 21 28 35 12 14 35 45 52 70 17 25 33 47 36 50 11 10 78 115
79 124 0 5 5 12 10 15 5 3 27 35 48 71 20 36 42 68 48 72 6 4 7 8 2 8 -5 0 -4
6 2 13 13 15 142 269 142 279 0 4 13 35 28 70 43 96 101 246 106 273 1 6 7 24
13 40 11 28 30 96 34 120 1 6 6 21 11 35 5 14 11 32 13 40 2 8 15 62 28 120
21 90 40 188 61 315 14 85 32 245 42 390 4 51 5 467 1 532 0 12 -6 24 -11 26
-6 2 -771 3 -1701 3 l-1690 -1 0 -618 c0 -341 4 -621 8 -624 4 -2 406 -5 893
-4 684 0 884 -3 880 -12 -2 -7 -10 -30 -17 -52 -7 -22 -15 -42 -19 -45 -3 -3
-6 -12 -8 -20 -7 -30 -95 -210 -104 -210 -4 0 -8 -6 -8 -14 0 -16 -102 -174
-168 -259 -45 -59 -178 -197 -243 -252 -51 -43 -116 -87 -179 -122 -128 -71
-149 -82 -167 -85 -10 -2 -20 -6 -23 -9 -5 -6 -170 -67 -200 -74 -110 -26
-195 -42 -260 -50 -19 -2 -50 -6 -69 -10 -27 -4 -197 -14 -286 -16 -91 -2
-373 22 -440 38 -11 3 -42 9 -70 14 -27 6 -54 11 -60 13 -5 1 -30 8 -55 15
-25 8 -49 14 -55 16 -5 1 -17 5 -25 8 -8 3 -43 15 -78 27 -141 46 -415 200
-499 279 -12 12 -25 21 -28 21 -3 0 -57 51 -119 113 -108 106 -256 283 -256
305 0 6 -4 12 -8 14 -16 6 -143 232 -157 278 -1 3 -9 23 -19 45 -16 37 -64
177 -86 250 -4 17 -16 66 -26 110 -10 44 -19 82 -19 85 -1 3 -5 32 -9 65 -5
33 -10 69 -12 80 -27 141 -25 610 2 785 7 47 12 80 17 110 8 46 57 245 66 265
9 19 44 115 47 125 0 3 7 19 14 35 7 17 14 32 15 35 12 50 180 321 257 415 64
77 244 251 313 303 39 28 75 56 82 62 16 13 163 100 170 100 3 0 17 8 31 18
44 30 249 113 357 144 176 51 302 73 478 82 44 3 80 6 82 8 8 7 268 -5 360
-17 35 -4 111 -16 128 -19 99 -21 288 -79 312 -96 6 -4 21 -11 35 -15 14 -4
41 -18 61 -31 20 -13 40 -20 43 -17 3 4 6 1 6 -5 0 -7 5 -12 11 -12 15 0 168
-107 264 -183 85 -69 231 -215 280 -282 17 -22 33 -42 36 -45 4 -3 36 -51 73
-106 l66 -102 92 48 c51 27 136 70 188 98 52 27 160 83 240 124 80 42 192 100
250 130 58 31 157 82 220 114 63 32 117 61 120 64 3 3 76 41 163 85 86 44 157
84 157 88 0 13 -94 147 -127 182 -7 8 -13 18 -13 23 0 6 -3 12 -8 14 -4 2 -18
17 -31 33 -57 75 -218 251 -301 331 -141 135 -177 166 -430 367 -30 24 -217
145 -285 184 -141 82 -362 185 -530 247 -112 41 -351 110 -425 122 -14 2 -36
7 -50 10 -14 3 -36 8 -50 10 -14 2 -36 7 -50 10 -14 3 -45 8 -70 10 -25 3 -55
6 -66 8 -35 7 -135 19 -173 21 -20 1 -36 3 -36 4 0 5 -491 20 -498 15z"/>
<path d="M24457 21594 c-1 -1 -51 -4 -112 -8 -157 -8 -328 -23 -370 -33 -11
-2 -33 -6 -50 -7 -16 -2 -41 -6 -55 -10 -14 -3 -41 -8 -60 -11 -19 -2 -53 -9
-75 -14 -22 -6 -53 -12 -70 -16 -16 -3 -73 -16 -125 -30 -52 -14 -102 -27
-111 -29 -74 -18 -377 -132 -493 -185 -34 -16 -85 -39 -113 -52 -29 -13 -53
-27 -53 -31 0 -5 -7 -8 -15 -8 -8 0 -37 -13 -65 -30 -28 -16 -55 -30 -60 -30
-6 0 -10 -3 -10 -8 0 -4 -13 -13 -29 -20 -59 -26 -370 -243 -379 -264 -2 -4
-8 -8 -12 -8 -5 0 -24 -14 -42 -31 -18 -17 -50 -45 -72 -62 -45 -38 -209 -201
-283 -282 -113 -124 -292 -369 -373 -510 -19 -33 -39 -67 -45 -77 -17 -28
-154 -298 -155 -306 -1 -4 -10 -27 -21 -52 -49 -110 -149 -434 -174 -565 -5
-22 -9 -44 -10 -50 -17 -79 -26 -124 -24 -131 1 -5 0 -11 -1 -14 -3 -9 -9 -44
-15 -94 -4 -27 -8 -56 -10 -65 -20 -106 -28 -684 -11 -846 4 -44 9 -93 11
-110 6 -61 16 -147 21 -168 2 -12 7 -35 9 -52 9 -51 34 -179 40 -202 10 -43
13 -58 24 -103 7 -25 13 -53 16 -63 19 -82 111 -344 154 -442 34 -76 134 -279
140 -285 4 -3 17 -25 30 -50 62 -116 270 -424 311 -460 3 -3 35 -40 70 -83 89
-107 285 -296 416 -401 95 -76 364 -266 377 -266 3 0 35 -18 73 -41 37 -23 80
-46 96 -51 15 -5 28 -14 28 -19 0 -5 4 -9 9 -9 5 0 64 -26 132 -59 127 -60
266 -115 399 -157 83 -27 227 -66 250 -68 8 0 17 -3 20 -6 4 -5 176 -40 265
-55 17 -3 39 -7 50 -9 11 -2 47 -7 80 -10 33 -4 78 -9 100 -12 22 -3 72 -8
110 -11 91 -8 673 -8 748 0 115 11 182 19 202 23 11 3 40 7 65 9 25 3 68 10
95 15 28 6 65 13 84 16 43 7 51 9 136 29 39 10 75 18 80 19 63 15 337 102 383
122 43 19 102 44 127 54 38 16 270 130 320 158 76 43 98 56 109 65 6 4 45 29
86 54 41 26 81 53 88 60 8 7 23 18 34 24 11 6 27 17 36 24 9 7 69 55 132 107
120 97 353 324 430 418 25 30 47 57 50 60 10 9 55 66 75 94 11 16 34 47 50 70
17 22 48 68 69 101 21 33 49 76 62 95 36 56 91 156 145 270 50 104 64 134 95
208 8 20 19 46 24 57 29 70 98 273 103 305 1 8 6 20 9 26 4 6 9 21 12 35 2 13
14 60 25 104 11 44 22 91 25 105 3 14 7 34 9 45 3 11 8 40 12 65 4 25 9 54 11
65 51 259 64 778 29 1093 -19 164 -26 215 -32 232 -3 8 -7 31 -9 50 -3 19 -9
53 -14 75 -12 53 -29 135 -35 163 -2 12 -7 27 -10 32 -4 6 -9 23 -11 38 -7 41
-102 320 -130 380 -13 29 -24 54 -24 57 0 25 -180 365 -242 457 -21 31 -38 62
-38 67 0 6 -4 11 -8 11 -5 0 -14 11 -20 25 -6 13 -18 32 -27 42 -9 10 -37 45
-61 78 -56 76 -61 82 -109 141 -51 62 -327 339 -380 381 -67 53 -129 103 -153
123 -13 11 -26 20 -28 20 -3 0 -13 8 -24 18 -29 27 -266 175 -355 222 -44 23
-96 50 -115 61 -82 43 -328 146 -358 149 -4 1 -16 7 -27 14 -16 10 -93 37
-115 41 -3 0 -11 4 -18 8 -7 5 -24 10 -38 13 -14 3 -44 11 -67 18 -52 18 -236
65 -282 73 -11 1 -40 7 -65 12 -56 12 -117 23 -150 27 -14 2 -39 6 -57 9 -17
3 -58 8 -90 11 -32 2 -78 7 -103 9 -116 12 -495 26 -503 19z m323 -1498 c41
-4 84 -8 95 -10 25 -3 128 -19 135 -21 3 -1 19 -4 35 -8 17 -4 39 -9 50 -12
90 -19 337 -110 343 -127 2 -4 10 -8 18 -8 31 0 264 -155 352 -234 76 -68 152
-149 227 -239 83 -102 206 -317 266 -469 58 -146 117 -372 133 -513 3 -22 9
-69 13 -105 9 -80 9 -443 0 -525 -4 -33 -9 -78 -11 -100 -2 -22 -8 -65 -15
-95 -6 -30 -12 -66 -15 -80 -6 -38 -45 -187 -55 -212 -5 -13 -19 -50 -31 -83
-12 -33 -31 -79 -41 -102 -11 -24 -19 -47 -19 -53 0 -5 -4 -10 -10 -10 -5 0
-9 -3 -8 -7 4 -13 -62 -134 -126 -233 -102 -155 -283 -352 -386 -419 -28 -17
-44 -30 -65 -48 -7 -7 -16 -13 -19 -13 -2 0 -31 -18 -64 -40 -123 -81 -345
-179 -467 -206 -5 -1 -28 -7 -50 -12 -38 -11 -88 -21 -130 -27 -11 -2 -33 -6
-50 -9 -58 -10 -171 -18 -295 -19 -110 -1 -168 2 -335 18 -48 4 -169 29 -245
51 -30 8 -64 17 -75 19 -11 2 -42 13 -70 25 -27 12 -57 23 -65 25 -25 5 -175
78 -178 87 -2 4 -8 8 -13 8 -18 0 -222 135 -239 159 -3 4 -27 25 -54 46 -175
141 -370 408 -470 643 -19 45 -33 82 -29 82 3 0 1 6 -5 13 -32 40 -108 353
-128 527 -13 124 -18 432 -9 540 12 125 24 213 42 295 8 39 16 78 18 89 15 67
74 246 110 331 10 22 17 40 16 40 -1 0 9 20 24 45 14 25 32 59 40 75 9 17 24
44 35 60 11 17 24 39 29 51 5 11 16 28 24 36 9 8 24 29 34 45 10 16 32 47 48
68 33 42 226 238 265 270 42 34 164 121 180 128 8 4 33 18 55 32 104 65 308
146 455 181 85 20 88 21 140 28 25 3 56 8 70 11 14 3 59 8 100 11 41 3 76 7
77 7 4 5 278 -2 343 -7z"/>
<path d="M32357 21594 c-1 -1 -65 -5 -142 -8 -77 -3 -151 -8 -165 -11 -14 -2
-52 -7 -85 -10 -71 -6 -111 -12 -185 -25 -30 -5 -68 -12 -85 -15 -16 -2 -41
-7 -55 -11 -14 -3 -37 -7 -53 -8 -15 -2 -30 -6 -34 -10 -3 -3 -16 -6 -27 -6
-12 -1 -88 -21 -171 -45 -82 -25 -159 -47 -170 -50 -11 -2 -29 -9 -40 -14 -20
-9 -166 -64 -175 -67 -20 -4 -291 -125 -306 -136 -6 -4 -51 -28 -100 -54 -49
-26 -90 -51 -92 -55 -2 -5 -8 -9 -14 -9 -12 0 -219 -136 -255 -166 -11 -11
-31 -26 -44 -34 -131 -88 -457 -403 -567 -548 -9 -13 -29 -37 -45 -55 -46 -54
-201 -286 -265 -397 -80 -140 -167 -321 -218 -457 -45 -118 -99 -291 -95 -301
1 -1 -6 -19 -14 -39 -8 -20 -13 -38 -10 -41 2 -2 0 -13 -5 -23 -6 -10 -12 -33
-14 -51 -3 -18 -5 -33 -6 -33 -2 0 -5 -16 -24 -115 -22 -120 -27 -149 -31
-200 -2 -25 -6 -61 -9 -81 -25 -190 -26 -659 -2 -869 2 -19 7 -62 11 -95 3
-33 8 -71 10 -85 3 -14 8 -45 11 -70 3 -25 8 -47 9 -50 2 -3 6 -24 9 -46 4
-22 8 -49 11 -59 2 -11 11 -51 20 -90 9 -38 18 -79 21 -90 3 -11 7 -27 9 -35
2 -8 4 -16 5 -17 2 -2 3 -6 4 -10 6 -27 53 -174 83 -258 37 -105 57 -151 129
-302 24 -51 44 -96 43 -99 0 -4 4 -10 9 -13 5 -3 24 -35 43 -71 18 -36 36 -67
39 -70 4 -3 13 -16 20 -30 11 -22 132 -208 153 -235 4 -5 21 -28 38 -50 82
-108 116 -150 189 -229 74 -81 192 -198 255 -253 111 -96 123 -105 225 -181
47 -34 90 -67 97 -72 6 -5 35 -24 65 -42 29 -18 55 -36 56 -40 2 -4 8 -8 14
-8 5 0 22 -8 36 -19 56 -39 368 -201 390 -201 6 0 12 -4 12 -10 0 -5 7 -10 15
-10 8 0 38 -11 67 -25 28 -14 56 -25 61 -25 5 0 23 -6 40 -14 30 -14 271 -91
313 -101 10 -2 46 -11 80 -19 132 -33 252 -56 369 -72 17 -2 44 -6 60 -8 39
-6 140 -17 186 -20 19 -1 39 -5 45 -8 12 -7 655 -2 724 5 30 4 80 9 110 12 59
7 110 14 150 21 24 4 90 13 135 18 12 1 25 5 30 8 6 3 33 9 60 13 52 9 63 11
68 15 1 1 9 3 17 5 8 2 26 6 40 9 56 12 67 14 110 27 25 7 48 13 53 15 4 1 9
3 12 4 3 1 8 3 13 4 124 33 356 124 521 206 123 61 388 212 401 230 3 3 21 16
40 28 20 11 45 29 57 39 12 10 34 27 49 38 15 11 32 25 38 31 6 6 18 15 27 20
17 9 106 85 171 144 102 93 248 243 323 335 28 33 56 66 63 73 6 8 26 35 44
60 18 26 47 66 64 89 52 68 147 224 209 343 16 30 36 63 44 73 8 9 11 17 7 17
-3 0 7 27 24 60 66 131 203 499 226 609 3 14 6 31 8 36 1 6 7 28 11 50 12 55
12 54 15 60 3 7 5 13 15 70 4 28 10 57 12 65 11 45 29 171 38 255 2 22 6 65 9
95 25 228 21 611 -8 850 -12 97 -15 115 -16 115 -1 0 -3 14 -5 30 -7 58 -22
146 -30 175 -2 8 -7 31 -10 50 -7 44 -43 181 -62 240 -8 25 -16 52 -18 61 -9
43 -95 271 -121 320 -7 14 -11 29 -7 33 3 3 1 6 -5 6 -7 0 -12 4 -12 10 0 18
-104 225 -171 339 -20 35 -172 265 -178 271 -4 3 -26 32 -51 64 -97 128 -264
307 -401 428 -35 32 -71 64 -79 71 -40 36 -163 129 -235 178 -44 30 -81 57
-83 62 -2 4 -8 7 -13 7 -5 0 -33 15 -62 34 -70 45 -145 87 -153 85 -4 0 -10 3
-13 8 -7 10 -181 96 -276 136 -139 58 -281 114 -315 122 -8 2 -44 13 -80 25
-69 22 -236 68 -273 75 -12 3 -35 8 -52 11 -16 4 -39 8 -50 9 -11 1 -27 5 -35
8 -14 6 -59 13 -145 23 -22 2 -51 7 -65 11 -14 3 -41 7 -60 8 -19 2 -64 6
-100 9 -132 13 -494 27 -503 20z m318 -1499 c166 -14 394 -65 505 -112 8 -3
18 -7 23 -8 4 -2 10 -4 15 -5 4 -1 10 -2 15 -1 4 0 7 -3 7 -8 0 -8 46 -24 54
-19 2 2 12 -4 22 -12 11 -9 39 -26 64 -39 48 -25 142 -82 150 -91 3 -3 28 -21
55 -40 28 -19 63 -46 80 -60 52 -44 199 -193 230 -234 17 -21 36 -45 43 -52 6
-7 12 -17 12 -22 0 -6 3 -12 8 -14 9 -4 72 -94 72 -103 0 -4 8 -19 18 -33 40
-57 122 -230 157 -327 9 -27 20 -57 23 -65 3 -8 6 -17 7 -20 1 -3 4 -12 7 -20
7 -18 28 -96 33 -119 28 -137 35 -174 40 -216 4 -27 9 -63 11 -80 21 -124 20
-513 0 -620 -2 -11 -7 -49 -12 -85 -4 -36 -8 -67 -9 -70 -1 -3 -7 -32 -14 -65
-25 -116 -82 -305 -106 -352 -8 -15 -15 -32 -15 -36 0 -16 -97 -204 -149 -287
-105 -169 -259 -336 -417 -454 -49 -36 -94 -70 -101 -76 -7 -5 -17 -10 -23
-10 -5 0 -10 -3 -10 -7 0 -5 -19 -17 -43 -28 -23 -11 -44 -23 -47 -26 -9 -12
-176 -87 -262 -117 -139 -50 -271 -78 -458 -99 -112 -12 -438 -5 -520 12 -14
3 -45 8 -70 11 -25 3 -54 8 -65 12 -11 3 -22 6 -25 7 -37 7 -99 22 -102 25 -3
2 -14 4 -53 13 -70 17 -247 95 -360 160 -153 88 -381 283 -471 403 -16 21 -31
41 -35 44 -14 13 -89 120 -89 129 0 5 -3 11 -7 13 -25 10 -144 261 -184 383
-17 55 -37 110 -42 122 -6 13 -7 26 -4 30 4 3 3 11 -2 17 -5 6 -12 27 -15 46
-3 19 -8 46 -12 60 -15 61 -28 148 -41 265 -9 84 -8 467 2 540 4 33 9 71 10
85 2 14 5 39 8 55 3 17 8 48 12 70 3 22 10 56 15 75 5 19 11 46 13 60 23 127
209 561 250 578 4 2 7 10 7 17 0 7 4 15 8 17 4 2 18 20 31 41 12 20 27 37 32
37 5 0 9 4 9 10 0 10 21 39 58 77 12 13 22 26 22 29 0 7 164 166 201 194 17
14 39 32 48 40 52 49 267 172 391 224 83 34 222 78 295 92 11 2 31 6 45 9 14
2 39 7 55 10 17 3 39 7 50 9 11 2 63 7 115 11 52 4 96 8 98 10 4 4 265 -3 337
-10z"/>
<path d="M83 21443 c-10 -4 -13 -686 -13 -3365 0 -3355 0 -3360 20 -3355 11 3
20 1 20 -4 0 -5 10 -5 23 0 13 5 30 5 37 1 8 -5 22 -4 31 1 11 6 20 5 24 -1 3
-6 15 -6 30 0 14 5 27 5 30 0 3 -5 18 -5 35 0 18 5 30 5 30 0 0 -6 10 -6 25 0
15 6 25 6 25 0 0 -5 12 -5 30 0 17 5 30 5 30 0 0 -5 13 -5 30 0 17 5 30 5 30
0 0 -5 13 -5 30 0 16 5 30 5 30 1 0 -4 23 -5 50 -1 28 4 53 3 56 -1 2 -4 18
-4 34 1 18 5 30 5 30 0 0 -6 10 -6 23 -1 13 5 30 5 37 1 8 -5 22 -4 31 1 11 6
20 5 24 -1 3 -6 15 -6 30 0 14 5 27 5 30 0 3 -5 18 -5 35 0 18 5 30 5 30 0 0
-6 10 -6 25 0 15 6 25 6 25 0 0 -5 12 -5 30 0 17 5 30 5 30 0 0 -5 13 -5 30 0
17 5 30 5 30 0 0 -5 13 -5 30 0 17 5 30 5 30 1 0 -4 27 -4 60 -1 33 3 60 3 60
-1 0 -4 14 -4 30 1 17 5 30 5 30 0 0 -5 13 -5 30 0 17 5 30 5 30 0 0 -5 13 -5
30 0 17 5 30 5 30 0 0 -5 13 -5 30 0 17 5 30 5 30 0 0 -5 13 -5 30 0 17 5 30
5 30 0 0 -5 13 -5 30 0 17 5 30 5 30 1 0 -5 11 -6 25 -3 l25 4 1 1447 c1 795
1 1455 0 1466 -2 18 1 17 21 -6 13 -15 30 -35 38 -45 8 -11 37 -46 63 -79 27
-33 63 -78 80 -99 18 -21 39 -48 47 -58 19 -24 76 -96 98 -123 10 -11 62 -77
117 -145 99 -124 107 -134 134 -166 8 -9 30 -37 49 -63 20 -25 40 -51 46 -57
6 -7 22 -26 36 -44 14 -17 33 -41 44 -53 10 -12 30 -38 45 -57 14 -19 31 -40
36 -46 6 -6 21 -25 35 -43 31 -39 54 -67 86 -103 13 -15 24 -32 24 -37 0 -5 3
-11 8 -13 5 -2 81 -92 120 -143 55 -71 78 -101 84 -105 3 -3 20 -23 37 -45 17
-22 42 -53 56 -70 30 -37 119 -147 165 -205 19 -24 43 -52 53 -62 9 -10 17
-21 17 -25 0 -5 18 -27 40 -51 22 -24 40 -47 40 -52 0 -4 3 -10 8 -12 6 -2 55
-62 139 -168 65 -81 167 -209 181 -225 9 -11 70 -87 136 -170 66 -82 125 -155
130 -161 6 -6 22 -26 36 -44 60 -80 120 -149 120 -137 0 4 8 3 18 -2 10 -5 24
-6 32 -1 8 5 21 5 31 -1 11 -6 20 -5 24 1 3 6 15 6 30 0 14 -5 27 -5 30 0 3 5
18 5 35 0 18 -5 30 -5 30 0 0 6 9 6 23 1 13 -5 30 -5 38 -1 8 5 21 5 28 1 7
-5 28 -5 47 -1 19 4 36 4 39 0 3 -5 19 -5 35 0 18 5 30 5 30 0 0 -6 10 -6 23
-1 13 5 30 5 37 1 8 -5 22 -4 31 1 11 6 20 5 24 -1 3 -6 15 -6 30 0 14 5 27 5
30 0 3 -5 18 -5 35 0 18 5 30 5 30 0 0 -6 10 -6 25 0 15 6 25 6 25 0 0 -5 12
-5 30 0 17 5 30 5 30 0 0 -5 13 -5 30 0 17 5 30 5 30 0 0 -5 13 -5 30 0 16 5
30 5 30 1 0 -4 27 -4 60 -1 33 3 60 3 60 -1 0 -4 14 -4 30 1 16 5 30 6 30 2 0
-8 68 -7 76 1 3 3 17 2 30 -3 14 -6 24 -6 24 0 0 5 12 5 30 0 18 -5 30 -5 30
0 0 6 10 6 25 0 15 -6 27 -6 30 0 3 6 15 6 30 0 15 -6 27 -6 30 0 3 5 15 6 28
1 12 -5 34 -5 49 0 16 4 28 4 28 -1 0 -6 10 -6 24 0 13 5 26 6 30 3 8 -8 96
-9 96 -1 0 4 13 3 30 -2 17 -5 30 -5 30 0 0 5 12 5 28 1 15 -4 39 -4 55 0 15
4 27 4 27 1 0 -6 66 -7 80 -2 3 2 8 2 13 1 12 -2 8 14 -10 35 -39 42 -103 122
-103 127 0 4 -10 17 -22 30 -13 13 -30 32 -38 43 -13 16 -55 68 -123 154 -7 8
-28 35 -47 60 -19 25 -37 47 -41 50 -3 3 -52 64 -109 135 -58 72 -110 137
-117 145 -77 94 -150 185 -158 198 -5 9 -15 21 -21 27 -6 5 -47 55 -90 110
-43 55 -87 107 -96 116 -10 9 -18 20 -18 24 0 4 -15 24 -32 45 -18 20 -40 46
-48 56 -33 43 -136 170 -152 189 -10 11 -58 72 -108 135 -50 63 -99 124 -108
135 -10 11 -37 46 -62 78 -25 31 -48 57 -53 57 -4 0 -5 5 -2 10 3 6 2 10 -2
10 -5 0 -25 21 -45 48 -20 26 -45 57 -55 69 -10 12 -28 34 -40 50 -12 15 -66
82 -120 148 -54 67 -109 136 -123 154 -14 18 -30 38 -35 44 -6 7 -41 50 -78
97 -38 47 -76 94 -85 105 -9 11 -43 53 -75 93 -32 40 -64 80 -72 90 -7 9 -29
35 -47 58 -18 22 -46 58 -63 79 -16 21 -39 48 -50 61 -11 12 -27 32 -35 44 -8
13 -32 41 -52 64 -21 22 -38 44 -38 48 0 3 -13 21 -30 40 -16 18 -80 95 -141
171 -122 153 -117 135 -59 197 18 19 89 100 110 126 9 11 45 53 81 94 36 41
74 85 85 98 10 13 30 36 44 51 14 15 44 49 67 77 24 28 53 62 65 76 13 14 43
49 68 78 25 29 50 58 55 64 6 6 43 49 84 96 40 47 95 110 122 140 26 30 57 66
69 80 71 83 108 126 128 146 12 13 22 25 22 28 0 3 15 21 32 40 18 19 46 49
62 67 15 19 54 63 85 98 31 35 63 74 71 85 8 12 19 26 25 31 7 6 56 62 111
125 54 63 101 117 104 120 3 3 34 39 69 80 69 82 176 203 204 232 9 10 17 20
17 23 0 2 12 17 28 33 15 16 43 48 62 71 19 24 56 65 81 92 25 27 43 49 40 49
-3 0 1 6 9 13 8 7 42 44 75 82 33 39 64 75 70 81 5 6 29 33 52 60 22 27 55 65
73 84 17 19 45 52 62 72 17 21 44 53 62 72 17 18 40 44 50 57 11 13 47 56 81
94 34 39 70 81 81 94 10 13 27 32 37 43 9 10 17 22 17 27 0 14 -31 18 -62 10
-16 -4 -28 -4 -28 1 0 6 -10 6 -25 0 -15 -6 -26 -6 -30 0 -4 7 -13 6 -25 0
-13 -7 -21 -7 -25 0 -4 6 -13 7 -24 1 -10 -6 -23 -6 -31 -1 -8 5 -21 5 -31 -1
-11 -6 -20 -5 -24 1 -3 6 -15 6 -30 0 -14 -5 -27 -5 -30 0 -3 5 -18 5 -35 0
-17 -5 -30 -5 -30 0 0 5 -10 6 -22 1 -13 -4 -35 -5 -50 0 -16 4 -28 4 -28 -1
0 -5 -13 -5 -30 0 -17 5 -30 5 -30 0 0 -5 -12 -5 -28 -1 -15 5 -37 5 -49 0
-13 -5 -25 -4 -28 1 -4 6 -13 7 -24 1 -9 -5 -23 -6 -29 -2 -7 4 -35 4 -62 1
-28 -4 -50 -3 -50 1 0 4 -13 4 -30 -1 -16 -5 -30 -6 -30 -2 0 8 -85 6 -106 -2
-8 -3 -14 -1 -14 4 0 5 -13 5 -30 0 -17 -5 -30 -5 -30 0 0 5 -13 5 -30 0 -17
-5 -30 -6 -30 -2 0 8 -85 6 -106 -2 -8 -3 -14 -1 -14 4 0 5 -13 5 -30 0 -17
-5 -30 -5 -30 0 0 5 -13 5 -30 0 -16 -5 -30 -6 -30 -2 0 8 -63 8 -76 -1 -6 -3
-16 -2 -24 3 -8 5 -21 5 -31 -1 -11 -6 -20 -5 -24 1 -3 6 -15 6 -30 0 -15 -6
-27 -6 -30 0 -4 6 -13 7 -24 1 -9 -5 -23 -6 -30 -1 -8 4 -27 4 -42 0 -16 -5
-29 -5 -29 0 0 5 -13 5 -30 0 -17 -5 -30 -5 -30 0 0 5 -13 5 -29 0 -21 -6 -31
-5 -34 3 -4 12 -36 -19 -110 -106 -23 -27 -51 -59 -62 -71 -17 -18 -59 -67
-140 -165 -11 -13 -29 -33 -41 -45 -11 -12 -45 -50 -75 -86 -29 -36 -56 -67
-59 -70 -3 -3 -30 -34 -60 -70 -30 -36 -67 -78 -82 -95 -15 -16 -35 -40 -45
-51 -84 -100 -112 -131 -135 -156 -16 -16 -28 -33 -28 -38 0 -4 -4 -10 -9 -12
-4 -1 -55 -57 -111 -123 -57 -66 -107 -121 -112 -123 -4 -2 -8 -8 -8 -13 0 -5
-8 -17 -17 -27 -16 -15 -57 -63 -143 -162 -12 -14 -38 -45 -58 -69 -21 -24
-46 -53 -57 -65 -11 -12 -41 -47 -67 -77 -26 -30 -59 -67 -73 -84 -14 -16 -40
-47 -58 -69 -18 -21 -45 -53 -62 -71 -16 -19 -46 -52 -65 -75 -117 -139 -145
-172 -166 -193 -11 -12 -49 -56 -85 -97 -35 -41 -66 -77 -69 -80 -3 -3 -30
-34 -60 -70 -30 -36 -59 -70 -65 -76 -5 -6 -30 -35 -55 -64 -25 -29 -60 -69
-77 -89 -18 -20 -33 -39 -33 -43 0 -5 -4 -8 -10 -8 -7 0 -10 448 -10 1324 l0
1325 -30 -9 c-16 -5 -30 -6 -30 -2 0 4 -29 7 -65 7 -36 0 -65 -3 -65 -7 0 -4
-13 -3 -30 2 -17 5 -30 5 -30 0 0 -5 -13 -5 -29 0 -15 4 -34 4 -42 0 -7 -5
-20 -5 -29 0 -9 5 -22 5 -30 0 -8 -5 -21 -5 -31 0 -9 5 -19 7 -22 4 -8 -9 -97
-10 -97 -2 0 4 -13 3 -30 -2 -17 -5 -30 -6 -30 -2 0 8 -85 6 -106 -2 -8 -3
-14 -1 -14 4 0 5 -13 5 -30 0 -17 -5 -30 -5 -30 0 0 5 -13 5 -30 0 -17 -5 -30
-6 -30 -2 0 8 -85 6 -106 -2 -8 -3 -14 -1 -14 4 0 5 -13 5 -30 0 -17 -5 -30
-5 -30 0 0 5 -13 5 -30 0 -16 -5 -30 -6 -30 -2 0 4 -38 7 -85 7 -47 0 -85 -3
-85 -7 0 -4 -14 -3 -30 2 -17 5 -30 5 -30 0 0 -5 -13 -5 -30 0 -17 5 -32 5
-35 0 -3 -5 -16 -5 -30 0 -15 6 -25 6 -25 0 0 -5 -12 -5 -30 0 -17 5 -30 5
-30 0 0 -5 -13 -5 -30 0 -17 5 -30 5 -30 0 0 -5 -12 -5 -27 -1 -16 5 -37 5
-48 1 -11 -4 -24 -4 -30 0 -5 4 -16 5 -22 3z"/>
<path d="M6765 21442 c-11 -3 -22 -8 -25 -12 -8 -12 -3 -4681 4 -4775 9 -105
20 -196 31 -267 4 -21 7 -40 6 -43 0 -2 5 -19 10 -37 5 -18 12 -49 14 -68 3
-19 10 -51 16 -70 6 -19 12 -47 15 -63 2 -15 11 -41 19 -57 9 -17 13 -30 10
-30 -2 0 5 -24 16 -52 11 -29 27 -72 35 -96 29 -84 211 -414 244 -442 3 -3 17
-21 30 -40 49 -69 125 -156 215 -244 76 -75 227 -196 243 -196 6 0 12 -3 14
-8 11 -25 421 -252 456 -252 5 0 23 -7 39 -15 28 -14 186 -71 223 -81 8 -2 38
-10 65 -18 125 -36 270 -70 350 -82 22 -3 51 -7 65 -10 51 -9 125 -18 250 -30
146 -14 664 -7 758 11 9 1 40 6 67 9 101 14 121 17 175 28 30 7 59 11 64 9 4
-1 14 3 20 9 7 5 15 8 17 5 12 -11 322 80 476 140 378 148 690 362 918 630 41
49 156 208 188 260 73 121 223 468 241 559 2 6 8 31 15 56 7 25 15 56 17 70 3
14 8 34 11 45 4 11 7 27 9 35 10 77 15 105 20 124 3 12 7 44 9 71 2 28 4 50 5
50 10 0 13 410 16 2469 4 2139 3 2408 -10 2403 -9 -4 -18 -2 -21 3 -3 6 -15 6
-30 0 -15 -6 -27 -6 -30 0 -4 6 -13 7 -24 1 -10 -6 -23 -6 -31 -1 -8 5 -21 5
-30 0 -9 -5 -22 -5 -30 0 -8 5 -21 5 -30 0 -9 -5 -22 -5 -30 0 -7 4 -24 4 -36
0 -14 -6 -26 -5 -29 0 -4 7 -13 6 -25 0 -12 -6 -21 -7 -25 0 -4 6 -15 6 -30 0
-15 -6 -25 -6 -25 0 0 5 -12 5 -30 0 -17 -5 -30 -5 -30 0 0 5 -13 5 -30 0 -16
-5 -30 -5 -30 -1 0 4 -23 5 -50 1 -28 -4 -53 -3 -56 1 -2 4 -18 4 -34 -1 -18
-5 -30 -5 -30 0 0 6 -10 6 -23 1 -13 -5 -30 -5 -37 -1 -8 5 -22 4 -31 -1 -11
-6 -20 -5 -24 1 -3 6 -15 6 -30 0 -14 -5 -27 -5 -30 0 -3 5 -18 5 -35 0 -18
-5 -30 -5 -30 0 0 6 -10 6 -25 0 -15 -6 -27 -6 -30 0 -3 6 -15 6 -30 0 -15 -6
-27 -6 -30 0 -3 6 -15 6 -30 0 -15 -6 -27 -6 -30 0 -4 6 -13 7 -24 1 -10 -6
-23 -6 -31 -1 -8 5 -18 6 -24 3 -11 -7 -76 -10 -76 -3 0 6 -88 3 -106 -4 -8
-3 -14 -1 -14 4 0 5 -13 5 -30 0 -17 -5 -30 -5 -30 0 0 5 -13 5 -30 0 -16 -5
-30 -6 -30 -2 0 9 -68 7 -77 -2 -3 -3 -7 -1033 -9 -2289 -1 -1255 -5 -2293 -8
-2307 -3 -14 -8 -45 -11 -70 -3 -25 -11 -63 -17 -85 -5 -22 -11 -47 -13 -55
-2 -8 -13 -42 -25 -75 -90 -248 -251 -440 -455 -542 -44 -23 -173 -68 -220
-77 -118 -24 -180 -30 -325 -31 -251 0 -375 25 -553 112 -93 45 -107 54 -107
63 0 5 -9 11 -19 15 -42 13 -231 230 -231 265 0 5 -4 10 -8 10 -11 0 -96 190
-108 243 -2 9 -7 27 -10 40 -17 67 -32 154 -41 242 -3 33 -6 1068 -7 2300 l-1
2240 -48 0 c-26 0 -47 2 -47 5 0 3 -81 5 -180 5 -99 0 -180 -4 -180 -8 0 -5
-5 -5 -11 -1 -14 8 -214 8 -228 0 -5 -4 -12 -2 -16 4 -4 6 -12 7 -24 1 -10 -6
-23 -6 -31 -1 -8 5 -21 5 -30 0 -9 -5 -22 -5 -30 0 -8 5 -21 5 -30 0 -9 -5
-22 -5 -30 0 -7 4 -24 4 -36 0 -14 -6 -26 -5 -29 0 -4 6 -13 7 -24 1 -10 -6
-23 -6 -31 -1 -8 5 -21 5 -31 -1 -11 -6 -20 -5 -24 1 -3 6 -15 6 -29 0 -13 -5
-27 -6 -30 -3 -8 8 -113 6 -126 -2 -6 -3 -10 -3 -10 2 0 4 -22 8 -50 8 -27 0
-50 -3 -50 -7 0 -4 -13 -3 -30 2 -17 5 -30 5 -30 0 0 -5 -13 -5 -28 0 -16 4
-36 4 -45 -1 -9 -6 -18 -5 -22 0 -3 7 -15 7 -30 1 -13 -5 -25 -6 -27 -2 -2 4
-12 6 -23 4z"/>
</g>
</svg>
