<svg width="0" height="0" class="hidden">
		<symbol viewBox="0 0 12 13" fill="none" xmlns="http://www.w3.org/2000/svg" id="viber">
			<path d="M11.4957 4.73541C11.4957 3.60831 11.0541 2.54593 10.2519 1.74384C9.4498 0.941742 8.38742 0.5 7.26041 0.5H4.75085C4.75085 0.5 4.75085 0.5 4.75076 0.5C3.62384 0.5 2.56146 0.941742 1.75946 1.74374C0.957367 2.54584 0.515625 3.60831 0.515625 4.73532V6.70792C0.515625 7.58069 0.78186 8.42032 1.28558 9.13599C1.72998 9.76733 2.32764 10.2604 3.02444 10.5732V11.7062C3.02444 12.2921 3.35248 12.4999 3.63336 12.5C3.83405 12.5 4.03482 12.4009 4.23019 12.2057L5.49243 10.9432H7.2605C8.38751 10.9432 9.44989 10.5015 10.252 9.6994C11.0541 8.89731 11.4958 7.83493 11.4958 6.70792L11.4957 4.73541ZM8.27197 8.07864L7.33997 9.01056C7.09644 9.25409 6.77179 9.38803 6.42572 9.38803C6.07965 9.38803 5.755 9.254 5.51147 9.01056L2.58252 6.08151C2.07852 5.57733 2.07852 4.75711 2.58252 4.25302L3.51453 3.32111C3.58044 3.2551 3.6698 3.21811 3.76309 3.21811C3.85629 3.21811 3.94574 3.2551 4.01166 3.32111L5.34302 4.65247C5.40894 4.71838 5.44592 4.80783 5.44592 4.90103C5.44592 4.99423 5.40894 5.08368 5.34293 5.1496L5.05902 5.4335L6.15948 6.53397L6.44348 6.24997C6.58081 6.11273 6.80338 6.11273 6.94061 6.25006L8.27197 7.58142C8.33798 7.64734 8.37497 7.73679 8.37497 7.82999C8.37497 7.92328 8.33798 8.01273 8.27197 8.07864ZM5.73944 3.91299C5.73944 3.7189 5.89682 3.56143 6.091 3.56143C7.30911 3.56143 8.30017 4.5524 8.30017 5.77042C8.30017 5.9646 8.14279 6.12198 7.94861 6.12198C7.75452 6.12198 7.59705 5.9646 7.59705 5.77042C7.59705 4.94012 6.92148 4.26456 6.091 4.26456C5.89682 4.26456 5.73944 4.10718 5.73944 3.91299ZM9.45474 6.12216C9.26056 6.12216 9.10318 5.96469 9.10318 5.7706C9.10327 4.96594 8.78989 4.20953 8.22098 3.64053C7.65198 3.07162 6.89557 2.75824 6.09091 2.75824C5.89682 2.75824 5.73935 2.60086 5.73935 2.40668C5.73935 2.21259 5.89682 2.05511 6.09091 2.05511C7.08334 2.05511 8.01636 2.44165 8.71811 3.1434C9.41995 3.84515 9.8064 4.77817 9.8063 5.7706C9.8063 5.96469 9.64893 6.12216 9.45474 6.12216Z" fill="#5D6C7B"/>
		</symbol>
		<symbol viewBox="0 0 13 13" fill="none" xmlns="http://www.w3.org/2000/svg" id="whatsapp">
			<path d="M6.49685 0.503787C3.18509 0.50449 0.500956 3.18978 0.501659 6.50153C0.501893 7.64828 0.830971 8.7709 1.44982 9.73633L0.516884 12.1569C0.467202 12.2856 0.531289 12.4303 0.660026 12.48C0.688813 12.4911 0.719381 12.4968 0.75023 12.4967C0.778854 12.4969 0.807267 12.492 0.834181 12.4822L3.33271 11.5902C6.14383 13.341 9.842 12.4815 11.5928 9.67033C13.3436 6.85918 12.484 3.16104 9.67286 1.41026C8.71994 0.81675 7.61952 0.502686 6.49685 0.503787Z" fill="#5D6C7B"/>
		</symbol>
		<symbol viewBox="0 0 12 11" fill="none" xmlns="http://www.w3.org/2000/svg" id="telegram">
			<path d="M4.70847 7.09058L4.50997 9.88258C4.79397 9.88258 4.91697 9.76058 5.06447 9.61408L6.39597 8.34158L9.15497 10.3621C9.66097 10.6441 10.0175 10.4956 10.154 9.89658L11.965 1.41058L11.9655 1.41008C12.126 0.662081 11.695 0.369581 11.202 0.553081L0.556967 4.62858C-0.169533 4.91058 -0.158533 5.31558 0.433467 5.49908L3.15497 6.34558L9.47647 2.39008C9.77397 2.19308 10.0445 2.30208 9.82197 2.49908L4.70847 7.09058Z" fill="#5D6C7B"/>
		</symbol>
		<symbol viewBox="0 0 113 23" fill="none" xmlns="http://www.w3.org/2000/svg" id="logo">
			<path d="M0.22 0.999999V22H5.47V0.999999H0.22ZM12.61 0.999999L4 10.99L12.85 22H19L10.03 10.84L18.55 0.999999H12.61ZM21.0466 0.999999V15.1C21.0466 16.42 21.2566 17.57 21.6766 18.55C22.1166 19.53 22.7166 20.34 23.4766 20.98C24.2566 21.6 25.1566 22.07 26.1766 22.39C27.1966 22.71 28.2966 22.87 29.4766 22.87C30.6566 22.87 31.7566 22.71 32.7766 22.39C33.8166 22.07 34.7166 21.6 35.4766 20.98C36.2566 20.34 36.8566 19.53 37.2766 18.55C37.7166 17.57 37.9366 16.42 37.9366 15.1V0.999999H32.8666V14.74C32.8666 15.8 32.5866 16.66 32.0266 17.32C31.4666 17.98 30.6166 18.31 29.4766 18.31C28.3566 18.31 27.5166 17.98 26.9566 17.32C26.3966 16.66 26.1166 15.8 26.1166 14.74V0.999999H21.0466ZM52.6417 14.41H58.2217C58.0417 14.95 57.7917 15.46 57.4717 15.94C57.1717 16.4 56.8017 16.81 56.3617 17.17C55.9217 17.51 55.3917 17.78 54.7717 17.98C54.1517 18.16 53.4617 18.25 52.7017 18.25C51.4617 18.25 50.3617 17.98 49.4017 17.44C48.4617 16.88 47.7117 16.1 47.1517 15.1C46.6117 14.08 46.3417 12.88 46.3417 11.5C46.3417 10.1 46.6217 8.92 47.1817 7.96C47.7617 6.98 48.5317 6.23 49.4917 5.71C50.4517 5.19 51.5217 4.93 52.7017 4.93C53.9217 4.93 54.9317 5.21 55.7317 5.77C56.5517 6.31 57.2017 7 57.6817 7.84L62.1817 5.5C61.5217 4.52 60.7317 3.66 59.8117 2.92C58.9117 2.16 57.8717 1.57 56.6917 1.15C55.5117 0.729999 54.1817 0.519999 52.7017 0.519999C51.0417 0.519999 49.5017 0.779999 48.0817 1.3C46.6617 1.82 45.4217 2.56 44.3617 3.52C43.3017 4.48 42.4817 5.64 41.9017 7C41.3217 8.34 41.0317 9.84 41.0317 11.5C41.0317 13.16 41.3117 14.68 41.8717 16.06C42.4517 17.42 43.2517 18.6 44.2717 19.6C45.2917 20.58 46.5017 21.34 47.9017 21.88C49.3017 22.4 50.8417 22.66 52.5217 22.66C54.3017 22.66 55.8817 22.35 57.2617 21.73C58.6417 21.09 59.7917 20.21 60.7117 19.09C61.6317 17.97 62.3117 16.68 62.7517 15.22C63.1917 13.76 63.3617 12.19 63.2617 10.51H52.6417V14.41ZM70.8353 11.5C70.8353 10.26 71.0753 9.17 71.5553 8.23C72.0553 7.27 72.7453 6.52 73.6253 5.98C74.5253 5.44 75.5753 5.17 76.7753 5.17C77.9953 5.17 79.0453 5.44 79.9253 5.98C80.8053 6.52 81.4853 7.27 81.9653 8.23C82.4453 9.17 82.6853 10.26 82.6853 11.5C82.6853 12.74 82.4353 13.84 81.9353 14.8C81.4553 15.74 80.7653 16.48 79.8653 17.02C78.9853 17.56 77.9553 17.83 76.7753 17.83C75.5753 17.83 74.5253 17.56 73.6253 17.02C72.7453 16.48 72.0553 15.74 71.5553 14.8C71.0753 13.84 70.8353 12.74 70.8353 11.5ZM65.4653 11.5C65.4653 13.12 65.7353 14.61 66.2753 15.97C66.8353 17.33 67.6153 18.51 68.6153 19.51C69.6353 20.51 70.8353 21.29 72.2153 21.85C73.5953 22.39 75.1153 22.66 76.7753 22.66C78.4153 22.66 79.9253 22.39 81.3053 21.85C82.6853 21.29 83.8753 20.51 84.8753 19.51C85.8953 18.51 86.6753 17.33 87.2153 15.97C87.7753 14.61 88.0553 13.12 88.0553 11.5C88.0553 9.88 87.7753 8.4 87.2153 7.06C86.6553 5.72 85.8653 4.56 84.8453 3.58C83.8253 2.6 82.6253 1.85 81.2453 1.33C79.8853 0.789999 78.3953 0.519999 76.7753 0.519999C75.1753 0.519999 73.6853 0.789999 72.3053 1.33C70.9253 1.85 69.7253 2.6 68.7053 3.58C67.6853 4.56 66.8853 5.72 66.3053 7.06C65.7453 8.4 65.4653 9.88 65.4653 11.5ZM95.474 11.5C95.474 10.26 95.714 9.17 96.194 8.23C96.694 7.27 97.384 6.52 98.264 5.98C99.164 5.44 100.214 5.17 101.414 5.17C102.634 5.17 103.684 5.44 104.564 5.98C105.444 6.52 106.124 7.27 106.604 8.23C107.084 9.17 107.324 10.26 107.324 11.5C107.324 12.74 107.074 13.84 106.574 14.8C106.094 15.74 105.404 16.48 104.504 17.02C103.624 17.56 102.594 17.83 101.414 17.83C100.214 17.83 99.164 17.56 98.264 17.02C97.384 16.48 96.694 15.74 96.194 14.8C95.714 13.84 95.474 12.74 95.474 11.5ZM90.104 11.5C90.104 13.12 90.374 14.61 90.914 15.97C91.474 17.33 92.254 18.51 93.254 19.51C94.274 20.51 95.474 21.29 96.854 21.85C98.234 22.39 99.754 22.66 101.414 22.66C103.054 22.66 104.564 22.39 105.944 21.85C107.324 21.29 108.514 20.51 109.514 19.51C110.534 18.51 111.314 17.33 111.854 15.97C112.414 14.61 112.694 13.12 112.694 11.5C112.694 9.88 112.414 8.4 111.854 7.06C111.294 5.72 110.504 4.56 109.484 3.58C108.464 2.6 107.264 1.85 105.884 1.33C104.524 0.789999 103.034 0.519999 101.414 0.519999C99.814 0.519999 98.324 0.789999 96.944 1.33C95.564 1.85 94.364 2.6 93.344 3.58C92.324 4.56 91.524 5.72 90.944 7.06C90.384 8.4 90.104 9.88 90.104 11.5Z" fill="#282739"/>
		</symbol>

		<symbol viewBox="0 0 16 16" fill="none" xmlns="http://www.w3.org/2000/svg" id="lupe">
			<g clip-path="url(#clip0_1_15988)">
			<path d="M15.9519 14.8499L10.758 9.65596C11.564 8.61396 11.9999 7.33997 11.9999 5.99997C11.9999 4.39598 11.374 2.89199 10.242 1.75799C9.10996 0.623997 7.60197 0 5.99997 0C4.39798 0 2.88999 0.625997 1.75799 1.75799C0.623997 2.88999 0 4.39598 0 5.99997C0 7.60197 0.625997 9.10996 1.75799 10.242C2.88999 11.376 4.39598 11.9999 5.99997 11.9999C7.33997 11.9999 8.61196 11.564 9.65396 10.76L14.8479 15.9519C14.8632 15.9672 14.8812 15.9793 14.9012 15.9875C14.9211 15.9958 14.9424 16 14.9639 16C14.9855 16 15.0068 15.9958 15.0267 15.9875C15.0466 15.9793 15.0647 15.9672 15.0799 15.9519L15.9519 15.0819C15.9672 15.0667 15.9793 15.0486 15.9875 15.0287C15.9958 15.0088 16 14.9875 16 14.9659C16 14.9444 15.9958 14.9231 15.9875 14.9032C15.9793 14.8833 15.9672 14.8652 15.9519 14.8499ZM9.16796 9.16796C8.31996 10.014 7.19597 10.48 5.99997 10.48C4.80398 10.48 3.67998 10.014 2.83199 9.16796C1.98599 8.31996 1.51999 7.19597 1.51999 5.99997C1.51999 4.80398 1.98599 3.67798 2.83199 2.83199C3.67998 1.98599 4.80398 1.51999 5.99997 1.51999C7.19597 1.51999 8.32196 1.98399 9.16796 2.83199C10.014 3.67998 10.48 4.80398 10.48 5.99997C10.48 7.19597 10.014 8.32196 9.16796 9.16796Z" fill="white"/>
			</g>
			<defs>
			<clipPath id="clip0_1_15988">
			<rect width="16" height="16" fill="white"/>
			</clipPath>
			</defs>
		</symbol>

		<symbol id="balance" xmlns="http://www.w3.org/2000/svg" xmlns:xlink="http://www.w3.org/1999/xlink" viewBox="0 0 100.75 100.75">
    	<path d="M93.424,44.205l-13.71-29.184c-0.093-0.205-0.247-0.387-0.412-0.527c-0.263-0.231-0.598-0.368-0.976-0.368H58.007
			c-0.676-2.862-3.231-5-6.279-5c-3.048,0-5.604,2.138-6.279,5H25.073c-0.65,0-1.198,0.415-1.406,0.993
			c-0.165,0.14-0.31,0.306-0.403,0.511L9.554,44.814c0,0-0.304,0.514-0.304,1.058c0,9.307,7.178,16.878,16,16.878s16-7.571,16-16.878
			c0-0.481-0.047-0.622-0.425-1.336l-14.083-27.41h18.706c0.559,2.367,2.404,4.232,4.751,4.808v56.192H35.92
			c-0.829,0-1.5,0.671-1.5,1.5v7c0,0.829,0.671,1.5,1.5,1.5h31.744c0.829,0,1.5-0.671,1.5-1.5v-7c0-0.829-0.671-1.5-1.5-1.5H53.2
			V21.949c2.374-0.56,4.245-2.437,4.808-4.823h17.898L62.153,43.927c-0.378,0.714-0.425,0.855-0.425,1.336
			c0,9.307,7.178,16.878,16,16.878c8.822,0,16-7.571,16-16.878C93.728,44.719,93.424,44.205,93.424,44.205z M25.25,59.749
			c-6.693,0-12.222-5.429-12.925-12.378h25.85C37.472,54.321,31.943,59.749,25.25,59.749z M37.391,44.372l-24.484,0.316l11.787-24.951
			L37.391,44.372z M66.164,81.125v4H37.42v-4H66.164z M55.159,15.914c-0.148,1.793-1.621,3.211-3.431,3.211
			c-1.908,0-3.46-1.57-3.46-3.5s1.552-3.5,3.46-3.5c1.81,0,3.283,1.418,3.431,3.211c-0.018,0.094-0.029,0.19-0.029,0.289
			S55.141,15.821,55.159,15.914z M78.285,19.128l11.787,24.951l-24.484-0.316L78.285,19.128z M77.728,59.14
			c-6.693,0-12.222-5.428-12.925-12.378h25.85C89.95,53.711,84.421,59.14,77.728,59.14z"></path>
  	</symbol>



		<symbol viewBox="0 0 20 20" fill="none" xmlns="http://www.w3.org/2000/svg" id="heart">
			<path d="M17.9935 5.51496C17.7329 4.90541 17.357 4.35303 16.887 3.88876C16.4167 3.4231 15.8621 3.05305 15.2535 2.79873C14.6224 2.53397 13.9455 2.39845 13.2622 2.40004C12.3034 2.40004 11.3681 2.66518 10.5552 3.166C10.3607 3.28581 10.176 3.4174 10.001 3.56077C9.82594 3.4174 9.6412 3.28581 9.44673 3.166C8.63386 2.66518 7.69847 2.40004 6.73975 2.40004C6.0494 2.40004 5.38043 2.53359 4.74841 2.79873C4.13779 3.05405 3.58745 3.42132 3.11489 3.88876C2.64428 4.35251 2.26834 4.90501 2.00838 5.51496C1.73807 6.14934 1.6 6.823 1.6 7.51629C1.6 8.17031 1.73224 8.85182 1.99477 9.54512C2.21451 10.1245 2.52955 10.7255 2.9321 11.3324C3.56995 12.2928 4.44699 13.2944 5.536 14.3098C7.34066 15.993 9.1278 17.1557 9.20365 17.2028L9.66453 17.5013C9.86872 17.6329 10.1313 17.6329 10.3354 17.5013L10.7963 17.2028C10.8722 17.1537 12.6574 15.993 14.464 14.3098C15.553 13.2944 16.43 12.2928 17.0679 11.3324C17.4704 10.7255 17.7874 10.1245 18.0052 9.54512C18.2677 8.85182 18.4 8.17031 18.4 7.51629C18.4019 6.823 18.2639 6.14934 17.9935 5.51496ZM10.001 15.9478C10.001 15.9478 3.07795 11.4679 3.07795 7.51629C3.07795 5.51496 4.7173 3.89269 6.73975 3.89269C8.1613 3.89269 9.39422 4.69401 10.001 5.86456C10.6077 4.69401 11.8406 3.89269 13.2622 3.89269C15.2846 3.89269 16.924 5.51496 16.924 7.51629C16.924 11.4679 10.001 15.9478 10.001 15.9478Z" fill="#282739"/>
		</symbol>

		<symbol viewBox="0 0 20 20" fill="none" xmlns="http://www.w3.org/2000/svg" id="pannier">
			<g clip-path="url(#clip0_1_16000)">
			<path d="M19.1523 7.25427H15.0031L12.6756 1.92486C12.5461 1.62833 12.2007 1.49282 11.9042 1.62239C11.6076 1.75189 11.4722 2.09732 11.6017 2.39388L13.7244 7.25431H6.27561L8.39827 2.39388C8.52776 2.09732 8.39237 1.75193 8.09581 1.62239C7.79929 1.49282 7.45382 1.62825 7.32436 1.92486L4.99686 7.25427H0.847685C0.304911 7.25427 -0.0979012 7.74564 0.0208488 8.26286L2.20581 17.7797C2.29257 18.1576 2.63608 18.4261 3.03265 18.4261H16.9673C17.3639 18.4261 17.7074 18.1576 17.7942 17.7797L19.9791 8.26286C20.0979 7.74568 19.695 7.25427 19.1523 7.25427ZM5.1071 9.0513C5.02882 9.0513 4.94925 9.03552 4.87288 9.00216C4.57632 8.87267 4.44089 8.52728 4.57042 8.23068L5.01057 7.22278H6.28933L5.64432 8.69966C5.54819 8.91993 5.33296 9.0513 5.1071 9.0513ZM7.0703 15.3011C7.0703 15.6247 6.80796 15.8871 6.48436 15.8871C6.16077 15.8871 5.89843 15.6247 5.89843 15.3011V11.0043C5.89843 10.6807 6.16077 10.4183 6.48436 10.4183C6.80796 10.4183 7.0703 10.6807 7.0703 11.0043V15.3011ZM10.5859 15.3011C10.5859 15.6247 10.3236 15.8871 9.99999 15.8871C9.6764 15.8871 9.41405 15.6247 9.41405 15.3011V11.0043C9.41405 10.6807 9.6764 10.4183 9.99999 10.4183C10.3236 10.4183 10.5859 10.6807 10.5859 11.0043V15.3011ZM14.1016 15.3011C14.1016 15.6247 13.8392 15.8871 13.5156 15.8871C13.192 15.8871 12.9297 15.6247 12.9297 15.3011V11.0043C12.9297 10.6807 13.192 10.4183 13.5156 10.4183C13.8392 10.4183 14.1016 10.6807 14.1016 11.0043V15.3011ZM15.1271 9.00216C15.0507 9.03552 14.9712 9.0513 14.8929 9.0513C14.667 9.0513 14.4518 8.91997 14.3556 8.6997L13.7106 7.22282H14.9894L15.4295 8.23071C15.5591 8.52728 15.4236 8.87267 15.1271 9.00216Z" fill="#6F73EE"/>
			</g>
			<defs>
			<clipPath id="clip0_1_16000">
			<rect width="20" height="20" fill="white"/>
			</clipPath>
			</defs>
		</symbol>

		<symbol viewBox="0 0 15 15" fill="none" xmlns="http://www.w3.org/2000/svg" id="location">
			<path d="M11.9468 1.84193C10.7591 0.654143 9.1798 0 7.50008 0C5.82034 0 4.24111 0.654114 3.05327 1.84193C1.86551 3.02969 1.21136 4.60886 1.21136 6.2886C1.21136 7.96834 1.86551 9.54757 3.05327 10.7354L7.18936 14.8713C7.27517 14.9571 7.38764 15 7.50008 15C7.61255 15 7.72502 14.9571 7.8108 14.8713L11.9467 10.7354C13.1345 9.5476 13.7887 7.96837 13.7887 6.28863C13.7887 4.60883 13.1346 3.02966 11.9468 1.84193ZM9.47505 8.26351C8.94753 8.79103 8.24616 9.08157 7.50011 9.08157C6.75406 9.08157 6.05269 8.79106 5.5252 8.26354C4.99765 7.73602 4.70714 7.03465 4.70714 6.2886C4.70714 5.54258 4.99765 4.84121 5.5252 4.31366C6.05269 3.78614 6.75406 3.49563 7.50011 3.49563C8.24616 3.49563 8.94753 3.78614 9.47505 4.31366C10.0026 4.84115 10.2931 5.54252 10.2931 6.28857C10.2931 7.03462 10.0025 7.73602 9.47505 8.26351Z" fill="white"/>
		</symbol>

		<symbol viewBox="0 0 16 16" fill="none" xmlns="http://www.w3.org/2000/svg" id="scooter">
		<g clip-path="url(#clip0_1_14920)">
		<path d="M12.9407 10.8467L10.3157 1.86234L12.0813 1.67171C12.4469 1.63109 12.7125 1.30296 12.6719 0.937337C12.6313 0.571712 12.3063 0.302962 11.9375 0.346712L6.84067 0.896712C6.47505 0.937337 6.20942 1.26546 6.25005 1.63109C6.28755 1.97171 6.57505 2.22484 6.91255 2.22484C6.93755 2.22484 6.95942 2.22484 6.98442 2.22171L8.97192 2.00921L11.6469 11.1842C11.1188 11.4936 10.7219 11.9936 10.5469 12.5873H5.45317C5.15942 11.5842 4.22505 10.8467 3.11255 10.8467C1.76567 10.8467 0.675049 11.9248 0.675049 13.253C0.675049 14.5811 1.76567 15.6592 3.11255 15.6592C4.22505 15.6592 5.15942 14.9248 5.45317 13.9186H10.5438C10.8375 14.9217 11.7719 15.6592 12.8844 15.6592C14.2313 15.6592 15.3219 14.5811 15.3219 13.253C15.3219 11.9405 14.2625 10.8748 12.9407 10.8467Z" fill="white"/>
		</g>
		<defs>
		<clipPath id="clip0_1_14920">
		<rect width="16" height="16" fill="white"/>
		</clipPath>
		</defs>
		</symbol>

		<svg viewBox="0 0 18 18" fill="none" xmlns="http://www.w3.org/2000/svg" id="energy">
			<path d="M14.2233 0.260732C14.14 0.101188 13.9749 0 13.7948 0H6.72925C6.51557 0 6.32727 0.141421 6.26614 0.346092L3.74218 8.80412C3.69851 8.95043 3.72654 9.10792 3.81776 9.23032C3.90898 9.35277 4.0527 9.42405 4.20529 9.42405H8.16696L6.57097 17.4212C6.52452 17.6538 6.65367 17.8862 6.87586 17.9691C6.93126 17.9898 6.98841 18 7.04477 18C7.21428 18 7.37679 17.9106 7.46487 17.7559L13.689 6.82597C13.7741 6.67634 13.7733 6.49172 13.6868 6.34287C13.6003 6.19402 13.4412 6.10147 13.269 6.10147H10.4664L14.1912 0.760267C14.2942 0.612563 14.3066 0.420397 14.2233 0.260732Z" fill="#5D6C7B"/>
		</svg>



		<symbol viewBox="0 0 22 22" fill="none" xmlns="http://www.w3.org/2000/svg" id="ok">
			<path d="M15.0168 7.58398H14.0092C13.79 7.58398 13.5816 7.68926 13.4527 7.86973L10.0754 12.5533L8.54566 10.4307C8.41676 10.2523 8.21051 10.1449 7.98922 10.1449H6.9816C6.84195 10.1449 6.76031 10.3039 6.84195 10.4178L9.51891 14.1303C9.58215 14.2185 9.66552 14.2905 9.7621 14.3401C9.85868 14.3897 9.9657 14.4156 10.0743 14.4156C10.1829 14.4156 10.2899 14.3897 10.3865 14.3401C10.483 14.2905 10.5664 14.2185 10.6297 14.1303L15.1543 7.85684C15.2381 7.74297 15.1564 7.58398 15.0168 7.58398Z" fill="#6F73EE"/>
			<path d="M11 1.375C5.68477 1.375 1.375 5.68477 1.375 11C1.375 16.3152 5.68477 20.625 11 20.625C16.3152 20.625 20.625 16.3152 20.625 11C20.625 5.68477 16.3152 1.375 11 1.375ZM11 18.9922C6.58711 18.9922 3.00781 15.4129 3.00781 11C3.00781 6.58711 6.58711 3.00781 11 3.00781C15.4129 3.00781 18.9922 6.58711 18.9922 11C18.9922 15.4129 15.4129 18.9922 11 18.9922Z" fill="#6F73EE"/>
		</symbol>

		<symbol viewBox="0 0 18 14" fill="none" xmlns="http://www.w3.org/2000/svg" id="battery">
			<path d="M16.5 1.75001V0.999988C16.5 0.586551 16.1638 0.25 15.75 0.25H13.5C13.0862 0.25 12.75 0.586551 12.75 0.999988V1.74998H12.5303L12.2198 1.43944C11.9407 1.16002 11.554 0.999988 11.1592 0.999988H6.84081C6.44604 0.999988 6.05932 1.16002 5.78025 1.43944L5.46971 1.74998H5.24999V0.999988C5.24999 0.586551 4.91382 0.25 4.5 0.25H2.25C1.83618 0.25 1.50001 0.586551 1.50001 0.999988V1.74998C0.673102 1.75001 0 2.42273 0 3.24999V12.25C0 13.0773 0.673102 13.75 1.50001 13.75H16.5C17.3269 13.75 18 13.0773 18 12.25V3.24999C18 2.42273 17.3269 1.75001 16.5 1.75001ZM4.12499 5.49999H2.62501C2.41773 5.49999 2.25 5.33226 2.25 5.12498C2.25 4.91773 2.41773 4.75 2.62501 4.75H4.12502C4.3323 4.75 4.50004 4.91773 4.50004 5.12501C4.5 5.33229 4.33227 5.49999 4.12499 5.49999ZM15.375 5.49999H15V5.875C15 6.08228 14.8322 6.25001 14.625 6.25001C14.4177 6.25001 14.25 6.08228 14.25 5.875V5.49999H13.8749C13.6677 5.49999 13.4999 5.33226 13.4999 5.12498C13.4999 4.9177 13.6677 4.74996 13.8749 4.74996H14.25V4.37495C14.25 4.16767 14.4177 3.99994 14.625 3.99994C14.8322 3.99994 15 4.16767 15 4.37495V4.75H15.375C15.5823 4.75 15.75 4.91773 15.75 5.12501C15.75 5.33229 15.5823 5.49999 15.375 5.49999Z" fill="#5D6C7B"/>
		</symbol>

		<symbol viewBox="0 0 18 18" fill="none" xmlns="http://www.w3.org/2000/svg" id="speed">
			<path d="M8.47256 4.5644V1.23605C6.43975 1.35274 4.53344 2.14266 3.01184 3.49874L5.36506 5.85196C6.25065 5.11474 7.32597 4.66917 8.47256 4.5644Z" fill="#5D6C7B"/>
			<path d="M4.61919 6.59759L2.266 4.24442C0.908759 5.76559 0.117849 7.67203 0.000427246 9.70533H3.32892C3.43438 8.5585 3.88087 7.48311 4.61919 6.59759Z" fill="#5D6C7B"/>
			<path d="M14.671 9.70533H17.9995C17.8821 7.67203 17.0912 5.76559 15.7339 4.24442L13.3807 6.59759C14.1191 7.48307 14.5655 8.5585 14.671 9.70533Z" fill="#5D6C7B"/>
			<path d="M14.6704 10.76C14.4959 12.676 13.4442 13.845 13.0266 14.2625C12.8203 14.4688 12.8203 14.8033 13.0266 15.0096L14.6267 16.6097C14.7298 16.7128 14.865 16.7644 15.0002 16.7644C15.1354 16.7644 15.2705 16.7128 15.3737 16.6097C16.9531 15.0305 17.874 12.9698 18 10.76H14.6704Z" fill="#5D6C7B"/>
			<path d="M3.27189 13.7858C3.41919 13.5544 3.64215 13.2058 3.90962 12.7933C3.63544 12.2499 3.40358 11.5724 3.32965 10.76H0C0.126035 12.9698 1.04695 15.0305 2.62628 16.6097C2.72943 16.7129 2.8646 16.7644 2.99978 16.7644C3.13495 16.7644 3.27016 16.7128 3.37331 16.6097L3.92119 16.0618C3.76249 15.9854 3.61607 15.8821 3.48785 15.754C2.95952 15.2256 2.87068 14.4163 3.27189 13.7858Z" fill="#5D6C7B"/>
			<path d="M9.52734 1.23605V4.5644C10.6739 4.66917 11.7493 5.1147 12.6348 5.85196L14.9881 3.49874C13.4665 2.14263 11.5601 1.35274 9.52734 1.23605Z" fill="#5D6C7B"/>
			<path d="M7.82841 9.06992C7.01222 9.8861 4.45108 13.8972 4.16175 14.352C4.02903 14.5605 4.05899 14.8332 4.23375 15.008C4.40851 15.1827 4.68122 15.2127 4.88976 15.08C5.34444 14.7906 9.35564 12.2295 10.1718 11.4133C10.8179 10.7673 10.8179 9.71602 10.1718 9.06995C9.52576 8.42389 8.47448 8.42385 7.82841 9.06992Z" fill="#5D6C7B"/>
		</symbol>

		<symbol viewBox="0 0 12 18" fill="none" xmlns="http://www.w3.org/2000/svg" id="energy">
			<path d="M11.2233 0.260732C11.14 0.101188 10.9749 0 10.7948 0H3.72925C3.51557 0 3.32727 0.141421 3.26614 0.346092L0.742185 8.80412C0.698508 8.95043 0.726539 9.10792 0.817759 9.23032C0.908979 9.35277 1.0527 9.42405 1.20529 9.42405H5.16696L3.57097 17.4212C3.52452 17.6538 3.65367 17.8862 3.87586 17.9691C3.93126 17.9898 3.98841 18 4.04477 18C4.21428 18 4.37679 17.9106 4.46487 17.7559L10.689 6.82597C10.7741 6.67634 10.7733 6.49172 10.6868 6.34287C10.6003 6.19402 10.4412 6.10147 10.269 6.10147H7.46643L11.1912 0.760267C11.2942 0.612563 11.3066 0.420397 11.2233 0.260732Z" fill="#5D6C7B"/>
		</symbol>

		<symbol viewBox="0 0 16 18" fill="none" xmlns="http://www.w3.org/2000/svg" id="watch">
			<path d="M13.4526 5.35819L14.5303 4.28044L13.4698 3.21956L12.3169 4.3725C11.2636 3.62609 10.0346 3.16607 8.75007 3.0375V1.5H10.2501V0H5.75007V1.5H7.25007V3.0375C5.96557 3.16607 4.7365 3.62609 3.68325 4.3725L2.53031 3.21956L1.46982 4.28044L2.54757 5.35819C1.54155 6.42334 0.869546 7.75982 0.614539 9.20259C0.359533 10.6454 0.532693 12.1312 1.11264 13.4767C1.69258 14.8222 2.6539 15.9683 3.8779 16.7736C5.10189 17.5788 6.53493 18.008 8.00007 18.008C9.4652 18.008 10.8982 17.5788 12.1222 16.7736C13.3462 15.9683 14.3076 14.8222 14.8875 13.4767C15.4674 12.1312 15.6406 10.6454 15.3856 9.20259C15.1306 7.75982 14.4586 6.42334 13.4526 5.35819ZM8.00007 16.5C6.81338 16.5 5.65334 16.1481 4.66664 15.4888C3.67995 14.8295 2.91091 13.8925 2.45679 12.7961C2.00266 11.6997 1.88384 10.4933 2.11535 9.32946C2.34686 8.16557 2.91831 7.09647 3.75742 6.25736C4.59654 5.41824 5.66564 4.8468 6.82952 4.61529C7.99341 4.38378 9.19981 4.5026 10.2962 4.95672C11.3925 5.41085 12.3296 6.17988 12.9889 7.16658C13.6482 8.15327 14.0001 9.31331 14.0001 10.5C13.9983 12.0908 13.3656 13.6158 12.2407 14.7407C11.1159 15.8655 9.59082 16.4982 8.00007 16.5Z" fill="#5D6C7B"/>
			<path d="M8 6.00015V10.5002H3.5C3.5 11.3902 3.76392 12.2602 4.25839 13.0002C4.75285 13.7402 5.45566 14.317 6.27792 14.6576C7.10019 14.9982 8.00499 15.0873 8.87791 14.9137C9.75082 14.7401 10.5526 14.3115 11.182 13.6821C11.8113 13.0528 12.2399 12.251 12.4135 11.3781C12.5872 10.5051 12.4981 9.60034 12.1575 8.77808C11.8169 7.95581 11.2401 7.25301 10.5001 6.75854C9.76005 6.26407 8.89002 6.00015 8 6.00015Z" fill="#5D6C7B"/>
		</symbol>

		<symbol viewBox="0 0 20 20" fill="none" xmlns="http://www.w3.org/2000/svg" id="heart2">
			<path d="M17.9935 5.51493C17.7329 4.90538 17.357 4.353 16.887 3.88873C16.4167 3.42307 15.8621 3.05302 15.2535 2.7987C14.6224 2.53394 13.9455 2.39842 13.2621 2.40001C12.3034 2.40001 11.368 2.66515 10.5552 3.16597C10.3607 3.28578 10.176 3.41737 10.0009 3.56074C9.82592 3.41737 9.64117 3.28578 9.44671 3.16597C8.63384 2.66515 7.69845 2.40001 6.73973 2.40001C6.04937 2.40001 5.38041 2.53356 4.74839 2.7987C4.13777 3.05402 3.58743 3.42129 3.11487 3.88873C2.64426 4.35248 2.26831 4.90498 2.00836 5.51493C1.73805 6.14931 1.59998 6.82296 1.59998 7.51626C1.59998 8.17028 1.73221 8.85179 1.99474 9.54509C2.21449 10.1245 2.52953 10.7255 2.93207 11.3323C3.56992 12.2927 4.44697 13.2944 5.53598 14.3098C7.34063 15.9929 9.12778 17.1556 9.20362 17.2028L9.66451 17.5013C9.8687 17.6329 10.1312 17.6329 10.3354 17.5013L10.7963 17.2028C10.8721 17.1537 12.6574 15.9929 14.4639 14.3098C15.553 13.2944 16.43 12.2927 17.0679 11.3323C17.4704 10.7255 17.7874 10.1245 18.0052 9.54509C18.2677 8.85179 18.4 8.17028 18.4 7.51626C18.4019 6.82296 18.2638 6.14931 17.9935 5.51493ZM10.0009 15.9478C10.0009 15.9478 3.07792 11.4679 3.07792 7.51626C3.07792 5.51493 4.71728 3.89266 6.73973 3.89266C8.16128 3.89266 9.3942 4.69397 10.0009 5.86453C10.6077 4.69397 11.8406 3.89266 13.2621 3.89266C15.2846 3.89266 16.924 5.51493 16.924 7.51626C16.924 11.4679 10.0009 15.9478 10.0009 15.9478Z" fill="#6F73EE"/>
		</symbol>

		<symbol viewBox="0 0 16 16" fill="none" xmlns="http://www.w3.org/2000/svg" id="checkbox">
			<rect width="16" height="16" rx="2" fill="white"/>
			<path d="M3.91308 7.03516H3.91326C3.99256 7.03525 4.07081 7.05331 4.14213 7.08798C4.21341 7.12262 4.27591 7.17295 4.32497 7.2352L3.91308 7.03516ZM3.91308 7.03516H3.09394C2.89031 7.03516 2.7766 7.26975 2.90232 7.4292L2.90237 7.42927L6.11214 11.4957L6.11218 11.4957C6.32247 11.7619 6.72568 11.7611 6.93667 11.4962L6.93708 11.4957L12.6597 4.24398C12.6598 4.24378 12.66 4.24358 12.6602 4.24338C12.7884 4.08295 12.6699 3.85 12.4689 3.85H11.6498C11.4894 3.85 11.3367 3.9235 11.2376 4.05044C11.2375 4.05055 11.2374 4.05066 11.2373 4.05077L6.52403 10.0216M3.91308 7.03516L6.52403 10.0216M6.52403 10.0216L4.32506 7.23531L6.52403 10.0216Z" fill="#6F73EE" stroke="#6F73EE" stroke-width="0.3"/>
		</symbol>


</svg>